<svg id="visual" viewBox="0 0 900 900" width="900" height="900" xmlns="http://www.w3.org/2000/svg" xmlns:xlink="http://www.w3.org/1999/xlink" version="1.1"><rect x="0" y="0" width="900" height="900" fill="#000"></rect><path d="M499 900L617 900L617 850L52 850L52 800L458 800L458 750L493 750L493 700L411 700L411 650L100 650L100 600L454 600L454 550L643 550L643 500L567 500L567 450L434 450L434 400L61 400L61 350L240 350L240 300L517 300L517 250L295 250L295 200L109 200L109 150L187 150L187 100L475 100L475 50L141 50L141 0L900 0L900 50L900 50L900 100L900 100L900 150L900 150L900 200L900 200L900 250L900 250L900 300L900 300L900 350L900 350L900 400L900 400L900 450L900 450L900 500L900 500L900 550L900 550L900 600L900 600L900 650L900 650L900 700L900 700L900 750L900 750L900 800L900 800L900 850L900 850L900 900L900 900Z" fill="#00ff55"></path><path d="M330 900L469 900L469 850L225 850L225 800L534 800L534 750L434 750L434 700L478 700L478 650L564 650L564 600L362 600L362 550L141 550L141 500L727 500L727 450L532 450L532 400L422 400L422 350L157 350L157 300L223 300L223 250L685 250L685 200L393 200L393 150L416 150L416 100L373 100L373 50L676 50L676 0L900 0L900 50L900 50L900 100L900 100L900 150L900 150L900 200L900 200L900 250L900 250L900 300L900 300L900 350L900 350L900 400L900 400L900 450L900 450L900 500L900 500L900 550L900 550L900 600L900 600L900 650L900 650L900 700L900 700L900 750L900 750L900 800L900 800L900 850L900 850L900 900L900 900Z" fill="#00daff"></path><path d="M402 900L267 900L267 850L597 850L597 800L619 800L619 750L327 750L327 700L406 700L406 650L461 650L461 600L503 600L503 550L662 550L662 500L340 500L340 450L215 450L215 400L754 400L754 350L381 350L381 300L415 300L415 250L375 250L375 200L217 200L217 150L648 150L648 100L361 100L361 50L444 50L444 0L900 0L900 50L900 50L900 100L900 100L900 150L900 150L900 200L900 200L900 250L900 250L900 300L900 300L900 350L900 350L900 400L900 400L900 450L900 450L900 500L900 500L900 550L900 550L900 600L900 600L900 650L900 650L900 700L900 700L900 750L900 750L900 800L900 800L900 850L900 850L900 900L900 900Z" fill="#0097ff"></path><path d="M682 900L682 900L682 850L603 850L603 800L656 800L656 750L545 750L545 700L464 700L464 650L666 650L666 600L442 600L442 550L592 550L592 500L583 500L583 450L755 450L755 400L486 400L486 350L471 350L471 300L324 300L324 250L607 250L607 200L415 200L415 150L730 150L730 100L336 100L336 50L375 50L375 0L900 0L900 50L900 50L900 100L900 100L900 150L900 150L900 200L900 200L900 250L900 250L900 300L900 300L900 350L900 350L900 400L900 400L900 450L900 450L900 500L900 500L900 550L900 550L900 600L900 600L900 650L900 650L900 700L900 700L900 750L900 750L900 800L900 800L900 850L900 850L900 900L900 900Z" fill="#4d36dd"></path><path d="M764 900L641 900L641 850L588 850L588 800L409 800L409 750L763 750L763 700L543 700L543 650L686 650L686 600L447 600L447 550L730 550L730 500L531 500L531 450L763 450L763 400L539 400L539 350L424 350L424 300L584 300L584 250L775 250L775 200L572 200L572 150L533 150L533 100L750 100L750 50L455 50L455 0L900 0L900 50L900 50L900 100L900 100L900 150L900 150L900 200L900 200L900 250L900 250L900 300L900 300L900 350L900 350L900 400L900 400L900 450L900 450L900 500L900 500L900 550L900 550L900 600L900 600L900 650L900 650L900 700L900 700L900 750L900 750L900 800L900 800L900 850L900 850L900 900L900 900Z" fill="#6600cc"></path><path d="M811 900L777 900L777 850L562 850L562 800L503 800L503 750L691 750L691 700L793 700L793 650L524 650L524 600L672 600L672 550L606 550L606 500L540 500L540 450L703 450L703 400L736 400L736 350L492 350L492 300L553 300L553 250L554 250L554 200L600 200L600 150L654 150L654 100L494 100L494 50L572 50L572 0L900 0L900 50L900 50L900 100L900 100L900 150L900 150L900 200L900 200L900 250L900 250L900 300L900 300L900 350L900 350L900 400L900 400L900 450L900 450L900 500L900 500L900 550L900 550L900 600L900 600L900 650L900 650L900 700L900 700L900 750L900 750L900 800L900 800L900 850L900 850L900 900L900 900Z" fill="#4d36dd"></path><path d="M795 900L609 900L609 850L676 850L676 800L746 800L746 750L677 750L677 700L744 700L744 650L813 650L813 600L581 600L581 550L747 550L747 500L589 500L589 450L600 450L600 400L843 400L843 350L652 350L652 300L581 300L581 250L627 250L627 200L586 200L586 150L783 150L783 100L767 100L767 50L646 50L646 0L900 0L900 50L900 50L900 100L900 100L900 150L900 150L900 200L900 200L900 250L900 250L900 300L900 300L900 350L900 350L900 400L900 400L900 450L900 450L900 500L900 500L900 550L900 550L900 600L900 600L900 650L900 650L900 700L900 700L900 750L900 750L900 800L900 800L900 850L900 850L900 900L900 900Z" fill="#0097ff"></path><path d="M697 900L741 900L741 850L771 850L771 800L684 800L684 750L695 750L695 700L707 700L707 650L803 650L803 600L745 600L745 550L700 550L700 500L791 500L791 450L843 450L843 400L737 400L737 350L860 350L860 300L740 300L740 250L763 250L763 200L790 200L790 150L797 150L797 100L667 100L667 50L860 50L860 0L900 0L900 50L900 50L900 100L900 100L900 150L900 150L900 200L900 200L900 250L900 250L900 300L900 300L900 350L900 350L900 400L900 400L900 450L900 450L900 500L900 500L900 550L900 550L900 600L900 600L900 650L900 650L900 700L900 700L900 750L900 750L900 800L900 800L900 850L900 850L900 900L900 900Z" fill="#00daff"></path><path d="M848 900L851 900L851 850L835 850L835 800L814 800L814 750L856 750L856 700L879 700L879 650L779 650L779 600L730 600L730 550L802 550L802 500L832 500L832 450L811 450L811 400L783 400L783 350L766 350L766 300L788 300L788 250L838 250L838 200L757 200L757 150L806 150L806 100L772 100L772 50L874 50L874 0L900 0L900 50L900 50L900 100L900 100L900 150L900 150L900 200L900 200L900 250L900 250L900 300L900 300L900 350L900 350L900 400L900 400L900 450L900 450L900 500L900 500L900 550L900 550L900 600L900 600L900 650L900 650L900 700L900 700L900 750L900 750L900 800L900 800L900 850L900 850L900 900L900 900Z" fill="#00ff55"></path></svg>