
  <svg
    width="2000"
    height="2000"
    viewBox="0 0 1000 1000"
    xmlns="http://www.w3.org/2000/svg"
  >
    <defs>
      <filter id="grain" x="-50vw" y="-50vh" width="100vw" height="100vh">
    <feFlood flood-color="#ffffff" result="neutral-gray" />
  
    <feTurbulence
      in="neutral-gray"
      type="fractalNoise"
      baseFrequency="2.5"
      numOctaves="100"
      stitchTiles="stitch"
      result="noise"
    />
  
    <feColorMatrix
      in="noise"
      type="saturate"
      values="0"
      result="destaturatedNoise"
    ></feColorMatrix>
  
    <feComponentTransfer in="desaturatedNoise" result="theNoise">
      <feFuncA type="table" tableValues="0 0 0.5 0"></feFuncA>
    </feComponentTransfer>
  
    <feBlend
      in="SourceGraphic"
      in2="theNoise"
      mode="soft-light"
      result="noisy-image"
    />
  </filter>
      
      <linearGradient id="linearGradientId" gradientTransform="rotate(120 0.5 0.5)">
      <stop offset="0%"  stop-color="#00ff55" />
			<stop offset="100%"  stop-color="#33ffff" />
    </linearGradient>
      
      
      
      
      <clipPath id="shape">
        <path fill="currentColor" d="M777.5,641.5Q726,783,558,882.5Q390,982,308,807Q226,632,146,461.5Q66,291,227.5,153Q389,15,576.5,92Q764,169,796.5,334.5Q829,500,777.5,641.5Z"></path>
      </clipPath>
    </defs>
  
    

    <g filter="url(#grain)" clip-path="url(#shape)">
      <path fill="url(#linearGradientId)" d="M777.5,641.5Q726,783,558,882.5Q390,982,308,807Q226,632,146,461.5Q66,291,227.5,153Q389,15,576.5,92Q764,169,796.5,334.5Q829,500,777.5,641.5Z" />
    </g>

    
  
  </svg>