<svg id="visual" viewBox="0 0 900 900" width="900" height="900" xmlns="http://www.w3.org/2000/svg" xmlns:xlink="http://www.w3.org/1999/xlink" version="1.1"><rect x="0" y="0" width="900" height="900" fill="#000"></rect><path d="M722 900L512 900L512 800L517 800L517 700L620 700L620 600L277 600L277 500L157 500L157 400L338 400L338 300L561 300L561 200L678 200L678 100L237 100L237 0L900 0L900 100L900 100L900 200L900 200L900 300L900 300L900 400L900 400L900 500L900 500L900 600L900 600L900 700L900 700L900 800L900 800L900 900L900 900Z" fill="#6600cc"></path><path d="M310 900L506 900L506 800L529 800L529 700L351 700L351 600L524 600L524 500L708 500L708 400L268 400L268 300L96 300L96 200L635 200L635 100L628 100L628 0L900 0L900 100L900 100L900 200L900 200L900 300L900 300L900 400L900 400L900 500L900 500L900 600L900 600L900 700L900 700L900 800L900 800L900 900L900 900Z" fill="#0088ff"></path><path d="M569 900L297 900L297 800L485 800L485 700L184 700L184 600L247 600L247 500L647 500L647 400L625 400L625 300L262 300L262 200L312 200L312 100L758 100L758 0L900 0L900 100L900 100L900 200L900 200L900 300L900 300L900 400L900 400L900 500L900 500L900 600L900 600L900 700L900 700L900 800L900 800L900 900L900 900Z" fill="#00ceff"></path><path d="M417 900L779 900L779 800L791 800L791 700L622 700L622 600L395 600L395 500L799 500L799 400L752 400L752 300L654 300L654 200L436 200L436 100L714 100L714 0L900 0L900 100L900 100L900 200L900 200L900 300L900 300L900 400L900 400L900 500L900 500L900 600L900 600L900 700L900 700L900 800L900 800L900 900L900 900Z" fill="#00fb87"></path><path d="M480 900L413 900L413 800L783 800L783 700L720 700L720 600L377 600L377 500L735 500L735 400L578 400L578 300L587 300L587 200L511 200L511 100L731 100L731 0L900 0L900 100L900 100L900 200L900 200L900 300L900 300L900 400L900 400L900 500L900 500L900 600L900 600L900 700L900 700L900 800L900 800L900 900L900 900Z" fill="#00ff55"></path><path d="M494 900L513 900L513 800L839 800L839 700L748 700L748 600L458 600L458 500L680 500L680 400L577 400L577 300L550 300L550 200L767 200L767 100L762 100L762 0L900 0L900 100L900 100L900 200L900 200L900 300L900 300L900 400L900 400L900 500L900 500L900 600L900 600L900 700L900 700L900 800L900 800L900 900L900 900Z" fill="#00fb87"></path><path d="M665 900L688 900L688 800L586 800L586 700L776 700L776 600L598 600L598 500L754 500L754 400L743 400L743 300L761 300L761 200L812 200L812 100L646 100L646 0L900 0L900 100L900 100L900 200L900 200L900 300L900 300L900 400L900 400L900 500L900 500L900 600L900 600L900 700L900 700L900 800L900 800L900 900L900 900Z" fill="#00ceff"></path><path d="M812 900L703 900L703 800L829 800L829 700L654 700L654 600L881 600L881 500L840 500L840 400L851 400L851 300L661 300L661 200L748 200L748 100L633 100L633 0L900 0L900 100L900 100L900 200L900 200L900 300L900 300L900 400L900 400L900 500L900 500L900 600L900 600L900 700L900 700L900 800L900 800L900 900L900 900Z" fill="#0088ff"></path><path d="M889 900L847 900L847 800L864 800L864 700L777 700L777 600L847 600L847 500L901 500L901 400L826 400L826 300L824 300L824 200L729 200L729 100L818 100L818 0L900 0L900 100L900 100L900 200L900 200L900 300L900 300L900 400L900 400L900 500L900 500L900 600L900 600L900 700L900 700L900 800L900 800L900 900L900 900Z" fill="#6600cc"></path></svg>