<svg id="visual" viewBox="0 0 900 900" width="900" height="900" xmlns="http://www.w3.org/2000/svg" xmlns:xlink="http://www.w3.org/1999/xlink" version="1.1"><rect x="0" y="0" width="900" height="900" fill="#000"></rect><path d="M670 900L116 900L116 850L684 850L684 800L328 800L328 750L597 750L597 700L62 700L62 650L670 650L670 600L143 600L143 550L517 550L517 500L198 500L198 450L291 450L291 400L391 400L391 350L170 350L170 300L284 300L284 250L412 250L412 200L580 200L580 150L446 150L446 100L521 100L521 50L553 50L553 0L900 0L900 50L900 50L900 100L900 100L900 150L900 150L900 200L900 200L900 250L900 250L900 300L900 300L900 350L900 350L900 400L900 400L900 450L900 450L900 500L900 500L900 550L900 550L900 600L900 600L900 650L900 650L900 700L900 700L900 750L900 750L900 800L900 800L900 850L900 850L900 900L900 900Z" fill="#6600cc"></path><path d="M293 900L323 900L323 850L423 850L423 800L125 800L125 750L703 750L703 700L666 700L666 650L268 650L268 600L629 600L629 550L316 550L316 500L597 500L597 450L658 450L658 400L254 400L254 350L532 350L532 300L695 300L695 250L639 250L639 200L458 200L458 150L602 150L602 100L636 100L636 50L397 50L397 0L900 0L900 50L900 50L900 100L900 100L900 150L900 150L900 200L900 200L900 250L900 250L900 300L900 300L900 350L900 350L900 400L900 400L900 450L900 450L900 500L900 500L900 550L900 550L900 600L900 600L900 650L900 650L900 700L900 700L900 750L900 750L900 800L900 800L900 850L900 850L900 900L900 900Z" fill="#0088ff"></path><path d="M335 900L461 900L461 850L690 850L690 800L652 800L652 750L751 750L751 700L621 700L621 650L550 650L550 600L464 600L464 550L731 550L731 500L512 500L512 450L750 450L750 400L314 400L314 350L384 350L384 300L640 300L640 250L221 250L221 200L447 200L447 150L215 150L215 100L339 100L339 50L470 50L470 0L900 0L900 50L900 50L900 100L900 100L900 150L900 150L900 200L900 200L900 250L900 250L900 300L900 300L900 350L900 350L900 400L900 400L900 450L900 450L900 500L900 500L900 550L900 550L900 600L900 600L900 650L900 650L900 700L900 700L900 750L900 750L900 800L900 800L900 850L900 850L900 900L900 900Z" fill="#00ceff"></path><path d="M761 900L476 900L476 850L555 850L555 800L526 800L526 750L685 750L685 700L500 700L500 650L555 650L555 600L624 600L624 550L743 550L743 500L744 500L744 450L417 450L417 400L607 400L607 350L489 350L489 300L354 300L354 250L725 250L725 200L542 200L542 150L594 150L594 100L451 100L451 50L640 50L640 0L900 0L900 50L900 50L900 100L900 100L900 150L900 150L900 200L900 200L900 250L900 250L900 300L900 300L900 350L900 350L900 400L900 400L900 450L900 450L900 500L900 500L900 550L900 550L900 600L900 600L900 650L900 650L900 700L900 700L900 750L900 750L900 800L900 800L900 850L900 850L900 900L900 900Z" fill="#00fb87"></path><path d="M757 900L437 900L437 850L444 850L444 800L672 800L672 750L638 750L638 700L481 700L481 650L797 650L797 600L547 600L547 550L517 550L517 500L776 500L776 450L691 450L691 400L517 400L517 350L676 350L676 300L763 300L763 250L413 250L413 200L668 200L668 150L789 150L789 100L700 100L700 50L495 50L495 0L900 0L900 50L900 50L900 100L900 100L900 150L900 150L900 200L900 200L900 250L900 250L900 300L900 300L900 350L900 350L900 400L900 400L900 450L900 450L900 500L900 500L900 550L900 550L900 600L900 600L900 650L900 650L900 700L900 700L900 750L900 750L900 800L900 800L900 850L900 850L900 900L900 900Z" fill="#00ff55"></path><path d="M726 900L595 900L595 850L735 850L735 800L610 800L610 750L632 750L632 700L727 700L727 650L707 650L707 600L521 600L521 550L629 550L629 500L603 500L603 450L650 450L650 400L667 400L667 350L724 350L724 300L741 300L741 250L543 250L543 200L747 200L747 150L560 150L560 100L794 100L794 50L727 50L727 0L900 0L900 50L900 50L900 100L900 100L900 150L900 150L900 200L900 200L900 250L900 250L900 300L900 300L900 350L900 350L900 400L900 400L900 450L900 450L900 500L900 500L900 550L900 550L900 600L900 600L900 650L900 650L900 700L900 700L900 750L900 750L900 800L900 800L900 850L900 850L900 900L900 900Z" fill="#00fb87"></path><path d="M744 900L634 900L634 850L720 850L720 800L777 800L777 750L652 750L652 700L713 700L713 650L749 650L749 600L714 600L714 550L781 550L781 500L667 500L667 450L576 450L576 400L751 400L751 350L748 350L748 300L695 300L695 250L766 250L766 200L577 200L577 150L833 150L833 100L804 100L804 50L800 50L800 0L900 0L900 50L900 50L900 100L900 100L900 150L900 150L900 200L900 200L900 250L900 250L900 300L900 300L900 350L900 350L900 400L900 400L900 450L900 450L900 500L900 500L900 550L900 550L900 600L900 600L900 650L900 650L900 700L900 700L900 750L900 750L900 800L900 800L900 850L900 850L900 900L900 900Z" fill="#00ceff"></path><path d="M796 900L694 900L694 850L668 850L668 800L670 800L670 750L729 750L729 700L854 700L854 650L705 650L705 600L774 600L774 550L797 550L797 500L721 500L721 450L808 450L808 400L703 400L703 350L782 350L782 300L657 300L657 250L667 250L667 200L760 200L760 150L797 150L797 100L667 100L667 50L745 50L745 0L900 0L900 50L900 50L900 100L900 100L900 150L900 150L900 200L900 200L900 250L900 250L900 300L900 300L900 350L900 350L900 400L900 400L900 450L900 450L900 500L900 500L900 550L900 550L900 600L900 600L900 650L900 650L900 700L900 700L900 750L900 750L900 800L900 800L900 850L900 850L900 900L900 900Z" fill="#0088ff"></path><path d="M890 900L867 900L867 850L872 850L872 800L806 800L806 750L734 750L734 700L750 700L750 650L847 650L847 600L884 600L884 550L884 550L884 500L851 500L851 450L795 450L795 400L732 400L732 350L811 350L811 300L879 300L879 250L742 250L742 200L812 200L812 150L772 150L772 100L861 100L861 50L742 50L742 0L900 0L900 50L900 50L900 100L900 100L900 150L900 150L900 200L900 200L900 250L900 250L900 300L900 300L900 350L900 350L900 400L900 400L900 450L900 450L900 500L900 500L900 550L900 550L900 600L900 600L900 650L900 650L900 700L900 700L900 750L900 750L900 800L900 800L900 850L900 850L900 900L900 900Z" fill="#6600cc"></path></svg>