<svg id="visual" viewBox="0 0 900 900" width="900" height="900" xmlns="http://www.w3.org/2000/svg" xmlns:xlink="http://www.w3.org/1999/xlink" version="1.1"><rect x="0" y="0" width="900" height="900" fill="#000"></rect><path d="M189 900L132 900L132 800L415 800L415 700L744 700L744 600L536 600L536 500L89 500L89 400L381 400L381 300L23 300L23 200L677 200L677 100L420 100L420 0L900 0L900 100L900 100L900 200L900 200L900 300L900 300L900 400L900 400L900 500L900 500L900 600L900 600L900 700L900 700L900 800L900 800L900 900L900 900Z" fill="#6600cc"></path><path d="M671 900L476 900L476 800L94 800L94 700L474 700L474 600L160 600L160 500L687 500L687 400L240 400L240 300L541 300L541 200L173 200L173 100L143 100L143 0L900 0L900 100L900 100L900 200L900 200L900 300L900 300L900 400L900 400L900 500L900 500L900 600L900 600L900 700L900 700L900 800L900 800L900 900L900 900Z" fill="#2950ea"></path><path d="M688 900L269 900L269 800L770 800L770 700L319 700L319 600L771 600L771 500L627 500L627 400L220 400L220 300L540 300L540 200L365 200L365 100L624 100L624 0L900 0L900 100L900 100L900 200L900 200L900 300L900 300L900 400L900 400L900 500L900 500L900 600L900 600L900 700L900 700L900 800L900 800L900 900L900 900Z" fill="#0077fb"></path><path d="M460 900L413 900L413 800L461 800L461 700L285 700L285 600L672 600L672 500L678 500L678 400L515 400L515 300L352 300L352 200L695 200L695 100L452 100L452 0L900 0L900 100L900 100L900 200L900 200L900 300L900 300L900 400L900 400L900 500L900 500L900 600L900 600L900 700L900 700L900 800L900 800L900 900L900 900Z" fill="#0097ff"></path><path d="M760 900L734 900L734 800L439 800L439 700L667 700L667 600L537 600L537 500L772 500L772 400L483 400L483 300L437 300L437 200L571 200L571 100L598 100L598 0L900 0L900 100L900 100L900 200L900 200L900 300L900 300L900 400L900 400L900 500L900 500L900 600L900 600L900 700L900 700L900 800L900 800L900 900L900 900Z" fill="#00b4ff"></path><path d="M817 900L730 900L730 800L515 800L515 700L824 700L824 600L477 600L477 500L541 500L541 400L508 400L508 300L580 300L580 200L539 200L539 100L777 100L777 0L900 0L900 100L900 100L900 200L900 200L900 300L900 300L900 400L900 400L900 500L900 500L900 600L900 600L900 700L900 700L900 800L900 800L900 900L900 900Z" fill="#00ceff"></path><path d="M701 900L603 900L603 800L846 800L846 700L590 700L590 600L545 600L545 500L854 500L854 400L758 400L758 300L567 300L567 200L548 200L548 100L833 100L833 0L900 0L900 100L900 100L900 200L900 200L900 300L900 300L900 400L900 400L900 500L900 500L900 600L900 600L900 700L900 700L900 800L900 800L900 900L900 900Z" fill="#00e5ef"></path><path d="M702 900L842 900L842 800L679 800L679 700L873 700L873 600L874 600L874 500L808 500L808 400L773 400L773 300L677 300L677 200L768 200L768 100L702 100L702 0L900 0L900 100L900 100L900 200L900 200L900 300L900 300L900 400L900 400L900 500L900 500L900 600L900 600L900 700L900 700L900 800L900 800L900 900L900 900Z" fill="#00f5b0"></path><path d="M804 900L743 900L743 800L867 800L867 700L754 700L754 600L827 600L827 500L836 500L836 400L844 400L844 300L830 300L830 200L725 200L725 100L723 100L723 0L900 0L900 100L900 100L900 200L900 200L900 300L900 300L900 400L900 400L900 500L900 500L900 600L900 600L900 700L900 700L900 800L900 800L900 900L900 900Z" fill="#00ff55"></path></svg>