<svg id="visual" viewBox="0 0 900 900" width="900" height="900" xmlns="http://www.w3.org/2000/svg" xmlns:xlink="http://www.w3.org/1999/xlink" version="1.1"><rect x="0" y="0" width="900" height="900" fill="#000"></rect><path d="M171 900L455 900L455 850L467 850L467 800L671 800L671 750L181 750L181 700L509 700L509 650L265 650L265 600L396 600L396 550L426 550L426 500L176 500L176 450L108 450L108 400L175 400L175 350L139 350L139 300L655 300L655 250L173 250L173 200L60 200L60 150L691 150L691 100L689 100L689 50L390 50L390 0L900 0L900 50L900 50L900 100L900 100L900 150L900 150L900 200L900 200L900 250L900 250L900 300L900 300L900 350L900 350L900 400L900 400L900 450L900 450L900 500L900 500L900 550L900 550L900 600L900 600L900 650L900 650L900 700L900 700L900 750L900 750L900 800L900 800L900 850L900 850L900 900L900 900Z" fill="#6600cc"></path><path d="M325 900L281 900L281 850L716 850L716 800L126 800L126 750L651 750L651 700L701 700L701 650L434 650L434 600L338 600L338 550L345 550L345 500L700 500L700 450L665 450L665 400L546 400L546 350L295 350L295 300L505 300L505 250L263 250L263 200L642 200L642 150L413 150L413 100L136 100L136 50L477 50L477 0L900 0L900 50L900 50L900 100L900 100L900 150L900 150L900 200L900 200L900 250L900 250L900 300L900 300L900 350L900 350L900 400L900 400L900 450L900 450L900 500L900 500L900 550L900 550L900 600L900 600L900 650L900 650L900 700L900 700L900 750L900 750L900 800L900 800L900 850L900 850L900 900L900 900Z" fill="#2950ea"></path><path d="M611 900L316 900L316 850L666 850L666 800L755 800L755 750L265 750L265 700L678 700L678 650L362 650L362 600L336 600L336 550L477 550L477 500L586 500L586 450L762 450L762 400L447 400L447 350L730 350L730 300L462 300L462 250L430 250L430 200L292 200L292 150L619 150L619 100L369 100L369 50L213 50L213 0L900 0L900 50L900 50L900 100L900 100L900 150L900 150L900 200L900 200L900 250L900 250L900 300L900 300L900 350L900 350L900 400L900 400L900 450L900 450L900 500L900 500L900 550L900 550L900 600L900 600L900 650L900 650L900 700L900 700L900 750L900 750L900 800L900 800L900 850L900 850L900 900L900 900Z" fill="#0077fb"></path><path d="M409 900L501 900L501 850L611 850L611 800L560 800L560 750L620 750L620 700L718 700L718 650L760 650L760 600L506 600L506 550L729 550L729 500L748 500L748 450L420 450L420 400L485 400L485 350L533 350L533 300L517 300L517 250L469 250L469 200L376 200L376 150L595 150L595 100L668 100L668 50L544 50L544 0L900 0L900 50L900 50L900 100L900 100L900 150L900 150L900 200L900 200L900 250L900 250L900 300L900 300L900 350L900 350L900 400L900 400L900 450L900 450L900 500L900 500L900 550L900 550L900 600L900 600L900 650L900 650L900 700L900 700L900 750L900 750L900 800L900 800L900 850L900 850L900 900L900 900Z" fill="#0097ff"></path><path d="M801 900L599 900L599 850L702 850L702 800L638 800L638 750L556 750L556 700L512 700L512 650L714 650L714 600L801 600L801 550L558 550L558 500L636 500L636 450L763 450L763 400L742 400L742 350L798 350L798 300L692 300L692 250L646 250L646 200L655 200L655 150L712 150L712 100L531 100L531 50L444 50L444 0L900 0L900 50L900 50L900 100L900 100L900 150L900 150L900 200L900 200L900 250L900 250L900 300L900 300L900 350L900 350L900 400L900 400L900 450L900 450L900 500L900 500L900 550L900 550L900 600L900 600L900 650L900 650L900 700L900 700L900 750L900 750L900 800L900 800L900 850L900 850L900 900L900 900Z" fill="#00b4ff"></path><path d="M639 900L514 900L514 850L791 850L791 800L612 800L612 750L529 750L529 700L610 700L610 650L502 650L502 600L743 600L743 550L815 550L815 500L789 500L789 450L719 450L719 400L724 400L724 350L611 350L611 300L656 300L656 250L520 250L520 200L669 200L669 150L675 150L675 100L601 100L601 50L796 50L796 0L900 0L900 50L900 50L900 100L900 100L900 150L900 150L900 200L900 200L900 250L900 250L900 300L900 300L900 350L900 350L900 400L900 400L900 450L900 450L900 500L900 500L900 550L900 550L900 600L900 600L900 650L900 650L900 700L900 700L900 750L900 750L900 800L900 800L900 850L900 850L900 900L900 900Z" fill="#00ceff"></path><path d="M738 900L794 900L794 850L633 850L633 800L581 800L581 750L593 750L593 700L627 700L627 650L605 650L605 600L841 600L841 550L847 550L847 500L660 500L660 450L715 450L715 400L605 400L605 350L577 350L577 300L791 300L791 250L668 250L668 200L626 200L626 150L568 150L568 100L833 100L833 50L592 50L592 0L900 0L900 50L900 50L900 100L900 100L900 150L900 150L900 200L900 200L900 250L900 250L900 300L900 300L900 350L900 350L900 400L900 400L900 450L900 450L900 500L900 500L900 550L900 550L900 600L900 600L900 650L900 650L900 700L900 700L900 750L900 750L900 800L900 800L900 850L900 850L900 900L900 900Z" fill="#00e5ef"></path><path d="M864 900L718 900L718 850L809 850L809 800L724 800L724 750L654 750L654 700L808 700L808 650L729 650L729 600L718 600L718 550L816 550L816 500L678 500L678 450L703 450L703 400L703 400L703 350L680 350L680 300L737 300L737 250L662 250L662 200L718 200L718 150L845 150L845 100L680 100L680 50L842 50L842 0L900 0L900 50L900 50L900 100L900 100L900 150L900 150L900 200L900 200L900 250L900 250L900 300L900 300L900 350L900 350L900 400L900 400L900 450L900 450L900 500L900 500L900 550L900 550L900 600L900 600L900 650L900 650L900 700L900 700L900 750L900 750L900 800L900 800L900 850L900 850L900 900L900 900Z" fill="#00f5b0"></path><path d="M800 900L881 900L881 850L880 850L880 800L891 800L891 750L881 750L881 700L875 700L875 650L804 650L804 600L740 600L740 550L851 550L851 500L746 500L746 450L779 450L779 400L773 400L773 350L785 350L785 300L744 300L744 250L753 250L753 200L784 200L784 150L756 150L756 100L881 100L881 50L833 50L833 0L900 0L900 50L900 50L900 100L900 100L900 150L900 150L900 200L900 200L900 250L900 250L900 300L900 300L900 350L900 350L900 400L900 400L900 450L900 450L900 500L900 500L900 550L900 550L900 600L900 600L900 650L900 650L900 700L900 700L900 750L900 750L900 800L900 800L900 850L900 850L900 900L900 900Z" fill="#00ff55"></path></svg>