<svg id="visual" viewBox="0 0 900 900" width="900" height="900" xmlns="http://www.w3.org/2000/svg" xmlns:xlink="http://www.w3.org/1999/xlink" version="1.1"><rect x="0" y="0" width="900" height="900" fill="#000"></rect><path d="M585 900L58 900L58 850L213 850L213 800L390 800L390 750L698 750L698 700L640 700L640 650L697 650L697 600L411 600L411 550L622 550L622 500L434 500L434 450L623 450L623 400L115 400L115 350L213 350L213 300L300 300L300 250L362 250L362 200L645 200L645 150L97 150L97 100L328 100L328 50L246 50L246 0L900 0L900 50L900 50L900 100L900 100L900 150L900 150L900 200L900 200L900 250L900 250L900 300L900 300L900 350L900 350L900 400L900 400L900 450L900 450L900 500L900 500L900 550L900 550L900 600L900 600L900 650L900 650L900 700L900 700L900 750L900 750L900 800L900 800L900 850L900 850L900 900L900 900Z" fill="#00ff55"></path><path d="M511 900L289 900L289 850L235 850L235 800L229 800L229 750L142 750L142 700L700 700L700 650L364 650L364 600L180 600L180 550L475 550L475 500L394 500L394 450L287 450L287 400L372 400L372 350L487 350L487 300L410 300L410 250L129 250L129 200L487 200L487 150L220 150L220 100L126 100L126 50L674 50L674 0L900 0L900 50L900 50L900 100L900 100L900 150L900 150L900 200L900 200L900 250L900 250L900 300L900 300L900 350L900 350L900 400L900 400L900 450L900 450L900 500L900 500L900 550L900 550L900 600L900 600L900 650L900 650L900 700L900 700L900 750L900 750L900 800L900 800L900 850L900 850L900 900L900 900Z" fill="#00daff"></path><path d="M558 900L711 900L711 850L245 850L245 800L737 800L737 750L570 750L570 700L525 700L525 650L494 650L494 600L691 600L691 550L583 550L583 500L599 500L599 450L474 450L474 400L725 400L725 350L722 350L722 300L391 300L391 250L579 250L579 200L392 200L392 150L454 150L454 100L282 100L282 50L422 50L422 0L900 0L900 50L900 50L900 100L900 100L900 150L900 150L900 200L900 200L900 250L900 250L900 300L900 300L900 350L900 350L900 400L900 400L900 450L900 450L900 500L900 500L900 550L900 550L900 600L900 600L900 650L900 650L900 700L900 700L900 750L900 750L900 800L900 800L900 850L900 850L900 900L900 900Z" fill="#0097ff"></path><path d="M419 900L579 900L579 850L538 850L538 800L341 800L341 750L607 750L607 700L776 700L776 650L444 650L444 600L458 600L458 550L351 550L351 500L540 500L540 450L540 450L540 400L765 400L765 350L472 350L472 300L608 300L608 250L645 250L645 200L596 200L596 150L568 150L568 100L663 100L663 50L552 50L552 0L900 0L900 50L900 50L900 100L900 100L900 150L900 150L900 200L900 200L900 250L900 250L900 300L900 300L900 350L900 350L900 400L900 400L900 450L900 450L900 500L900 500L900 550L900 550L900 600L900 600L900 650L900 650L900 700L900 700L900 750L900 750L900 800L900 800L900 850L900 850L900 900L900 900Z" fill="#4d36dd"></path><path d="M448 900L408 900L408 850L495 850L495 800L636 800L636 750L395 750L395 700L782 700L782 650L582 650L582 600L773 600L773 550L541 550L541 500L460 500L460 450L632 450L632 400L420 400L420 350L468 350L468 300L520 300L520 250L487 250L487 200L517 200L517 150L477 150L477 100L599 100L599 50L754 50L754 0L900 0L900 50L900 50L900 100L900 100L900 150L900 150L900 200L900 200L900 250L900 250L900 300L900 300L900 350L900 350L900 400L900 400L900 450L900 450L900 500L900 500L900 550L900 550L900 600L900 600L900 650L900 650L900 700L900 700L900 750L900 750L900 800L900 800L900 850L900 850L900 900L900 900Z" fill="#6600cc"></path><path d="M674 900L680 900L680 850L718 850L718 800L617 800L617 750L733 750L733 700L777 700L777 650L780 650L780 600L603 600L603 550L560 550L560 500L753 500L753 450L701 450L701 400L608 400L608 350L741 350L741 300L520 300L520 250L592 250L592 200L823 200L823 150L715 150L715 100L536 100L536 50L576 50L576 0L900 0L900 50L900 50L900 100L900 100L900 150L900 150L900 200L900 200L900 250L900 250L900 300L900 300L900 350L900 350L900 400L900 400L900 450L900 450L900 500L900 500L900 550L900 550L900 600L900 600L900 650L900 650L900 700L900 700L900 750L900 750L900 800L900 800L900 850L900 850L900 900L900 900Z" fill="#4d36dd"></path><path d="M832 900L579 900L579 850L632 850L632 800L586 800L586 750L766 750L766 700L585 700L585 650L565 650L565 600L829 600L829 550L823 550L823 500L578 500L578 450L598 450L598 400L784 400L784 350L595 350L595 300L720 300L720 250L785 250L785 200L654 200L654 150L717 150L717 100L618 100L618 50L806 50L806 0L900 0L900 50L900 50L900 100L900 100L900 150L900 150L900 200L900 200L900 250L900 250L900 300L900 300L900 350L900 350L900 400L900 400L900 450L900 450L900 500L900 500L900 550L900 550L900 600L900 600L900 650L900 650L900 700L900 700L900 750L900 750L900 800L900 800L900 850L900 850L900 900L900 900Z" fill="#0097ff"></path><path d="M843 900L772 900L772 850L825 850L825 800L713 800L713 750L660 750L660 700L809 700L809 650L813 650L813 600L667 600L667 550L712 550L712 500L724 500L724 450L843 450L843 400L701 400L701 350L837 350L837 300L685 300L685 250L679 250L679 200L848 200L848 150L756 150L756 100L719 100L719 50L667 50L667 0L900 0L900 50L900 50L900 100L900 100L900 150L900 150L900 200L900 200L900 250L900 250L900 300L900 300L900 350L900 350L900 400L900 400L900 450L900 450L900 500L900 500L900 550L900 550L900 600L900 600L900 650L900 650L900 700L900 700L900 750L900 750L900 800L900 800L900 850L900 850L900 900L900 900Z" fill="#00daff"></path><path d="M760 900L763 900L763 850L863 850L863 800L763 800L763 750L763 750L763 700L886 700L886 650L759 650L759 600L812 600L812 550L798 550L798 500L751 500L751 450L783 450L783 400L783 400L783 350L737 350L737 300L814 300L814 250L734 250L734 200L809 200L809 150L834 150L834 100L798 100L798 50L840 50L840 0L900 0L900 50L900 50L900 100L900 100L900 150L900 150L900 200L900 200L900 250L900 250L900 300L900 300L900 350L900 350L900 400L900 400L900 450L900 450L900 500L900 500L900 550L900 550L900 600L900 600L900 650L900 650L900 700L900 700L900 750L900 750L900 800L900 800L900 850L900 850L900 900L900 900Z" fill="#00ff55"></path></svg>