<svg id="visual" viewBox="0 0 900 900" width="900" height="900" xmlns="http://www.w3.org/2000/svg" xmlns:xlink="http://www.w3.org/1999/xlink" version="1.1"><rect x="0" y="0" width="900" height="900" fill="#000"></rect><path d="M254 900L598 900L598 800L523 800L523 700L689 700L689 600L196 600L196 500L7 500L7 400L286 400L286 300L33 300L33 200L126 200L126 100L353 100L353 0L900 0L900 100L900 100L900 200L900 200L900 300L900 300L900 400L900 400L900 500L900 500L900 600L900 600L900 700L900 700L900 800L900 800L900 900L900 900Z" fill="#00ff55"></path><path d="M274 900L465 900L465 800L458 800L458 700L250 700L250 600L436 600L436 500L363 500L363 400L697 400L697 300L696 300L696 200L248 200L248 100L633 100L633 0L900 0L900 100L900 100L900 200L900 200L900 300L900 300L900 400L900 400L900 500L900 500L900 600L900 600L900 700L900 700L900 800L900 800L900 900L900 900Z" fill="#00daff"></path><path d="M323 900L276 900L276 800L276 800L276 700L650 700L650 600L671 600L671 500L278 500L278 400L248 400L248 300L465 300L465 200L363 200L363 100L387 100L387 0L900 0L900 100L900 100L900 200L900 200L900 300L900 300L900 400L900 400L900 500L900 500L900 600L900 600L900 700L900 700L900 800L900 800L900 900L900 900Z" fill="#0097ff"></path><path d="M569 900L305 900L305 800L701 800L701 700L509 700L509 600L309 600L309 500L548 500L548 400L490 400L490 300L648 300L648 200L370 200L370 100L385 100L385 0L900 0L900 100L900 100L900 200L900 200L900 300L900 300L900 400L900 400L900 500L900 500L900 600L900 600L900 700L900 700L900 800L900 800L900 900L900 900Z" fill="#4d36dd"></path><path d="M469 900L593 900L593 800L695 800L695 700L453 700L453 600L638 600L638 500L564 500L564 400L384 400L384 300L734 300L734 200L767 200L767 100L458 100L458 0L900 0L900 100L900 100L900 200L900 200L900 300L900 300L900 400L900 400L900 500L900 500L900 600L900 600L900 700L900 700L900 800L900 800L900 900L900 900Z" fill="#6600cc"></path><path d="M845 900L822 900L822 800L514 800L514 700L655 700L655 600L808 600L808 500L710 500L710 400L513 400L513 300L770 300L770 200L687 200L687 100L778 100L778 0L900 0L900 100L900 100L900 200L900 200L900 300L900 300L900 400L900 400L900 500L900 500L900 600L900 600L900 700L900 700L900 800L900 800L900 900L900 900Z" fill="#4d36dd"></path><path d="M647 900L608 900L608 800L654 800L654 700L615 700L615 600L650 600L650 500L618 500L618 400L575 400L575 300L854 300L854 200L550 200L550 100L771 100L771 0L900 0L900 100L900 100L900 200L900 200L900 300L900 300L900 400L900 400L900 500L900 500L900 600L900 600L900 700L900 700L900 800L900 800L900 900L900 900Z" fill="#0097ff"></path><path d="M636 900L811 900L811 800L706 800L706 700L641 700L641 600L636 600L636 500L851 500L851 400L814 400L814 300L631 300L631 200L778 200L778 100L648 100L648 0L900 0L900 100L900 100L900 200L900 200L900 300L900 300L900 400L900 400L900 500L900 500L900 600L900 600L900 700L900 700L900 800L900 800L900 900L900 900Z" fill="#00daff"></path><path d="M835 900L869 900L869 800L839 800L839 700L842 700L842 600L749 600L749 500L812 500L812 400L837 400L837 300L848 300L848 200L829 200L829 100L838 100L838 0L900 0L900 100L900 100L900 200L900 200L900 300L900 300L900 400L900 400L900 500L900 500L900 600L900 600L900 700L900 700L900 800L900 800L900 900L900 900Z" fill="#00ff55"></path></svg>