<svg id="visual" viewBox="0 0 900 900" width="900" height="900" xmlns="http://www.w3.org/2000/svg" xmlns:xlink="http://www.w3.org/1999/xlink" version="1.1"><rect x="0" y="0" width="900" height="900" fill="#000"></rect><path d="M341 900L406 900L406 800L288 800L288 700L85 700L85 600L22 600L22 500L594 500L594 400L65 400L65 300L509 300L509 200L748 200L748 100L718 100L718 0L900 0L900 100L900 100L900 200L900 200L900 300L900 300L900 400L900 400L900 500L900 500L900 600L900 600L900 700L900 700L900 800L900 800L900 900L900 900Z" fill="#00ff55"></path><path d="M214 900L311 900L311 800L340 800L340 700L751 700L751 600L313 600L313 500L698 500L698 400L719 400L719 300L693 300L693 200L342 200L342 100L668 100L668 0L900 0L900 100L900 100L900 200L900 200L900 300L900 300L900 400L900 400L900 500L900 500L900 600L900 600L900 700L900 700L900 800L900 800L900 900L900 900Z" fill="#00f5b0"></path><path d="M291 900L737 900L737 800L256 800L256 700L657 700L657 600L252 600L252 500L588 500L588 400L592 400L592 300L382 300L382 200L310 200L310 100L546 100L546 0L900 0L900 100L900 100L900 200L900 200L900 300L900 300L900 400L900 400L900 500L900 500L900 600L900 600L900 700L900 700L900 800L900 800L900 900L900 900Z" fill="#00e5ef"></path><path d="M276 900L762 900L762 800L469 800L469 700L545 700L545 600L498 600L498 500L676 500L676 400L552 400L552 300L763 300L763 200L427 200L427 100L315 100L315 0L900 0L900 100L900 100L900 200L900 200L900 300L900 300L900 400L900 400L900 500L900 500L900 600L900 600L900 700L900 700L900 800L900 800L900 900L900 900Z" fill="#00ceff"></path><path d="M799 900L653 900L653 800L527 800L527 700L817 700L817 600L394 600L394 500L799 500L799 400L372 400L372 300L390 300L390 200L480 200L480 100L627 100L627 0L900 0L900 100L900 100L900 200L900 200L900 300L900 300L900 400L900 400L900 500L900 500L900 600L900 600L900 700L900 700L900 800L900 800L900 900L900 900Z" fill="#00b4ff"></path><path d="M523 900L605 900L605 800L530 800L530 700L498 700L498 600L593 600L593 500L507 500L507 400L737 400L737 300L701 300L701 200L610 200L610 100L473 100L473 0L900 0L900 100L900 100L900 200L900 200L900 300L900 300L900 400L900 400L900 500L900 500L900 600L900 600L900 700L900 700L900 800L900 800L900 900L900 900Z" fill="#0097ff"></path><path d="M588 900L621 900L621 800L830 800L830 700L629 700L629 600L641 600L641 500L808 500L808 400L837 400L837 300L571 300L571 200L610 200L610 100L641 100L641 0L900 0L900 100L900 100L900 200L900 200L900 300L900 300L900 400L900 400L900 500L900 500L900 600L900 600L900 700L900 700L900 800L900 800L900 900L900 900Z" fill="#0077fb"></path><path d="M697 900L673 900L673 800L777 800L777 700L719 700L719 600L676 600L676 500L852 500L852 400L776 400L776 300L858 300L858 200L752 200L752 100L695 100L695 0L900 0L900 100L900 100L900 200L900 200L900 300L900 300L900 400L900 400L900 500L900 500L900 600L900 600L900 700L900 700L900 800L900 800L900 900L900 900Z" fill="#2950ea"></path><path d="M789 900L838 900L838 800L740 800L740 700L842 700L842 600L779 600L779 500L767 500L767 400L730 400L730 300L762 300L762 200L728 200L728 100L900 100L900 0L900 0L900 100L900 100L900 200L900 200L900 300L900 300L900 400L900 400L900 500L900 500L900 600L900 600L900 700L900 700L900 800L900 800L900 900L900 900Z" fill="#6600cc"></path></svg>