<svg id="visual" viewBox="0 0 900 900" width="900" height="900" xmlns="http://www.w3.org/2000/svg" xmlns:xlink="http://www.w3.org/1999/xlink" version="1.1"><rect x="0" y="0" width="900" height="900" fill="#000"></rect><path d="M383 900L498 900L498 855L445 855L445 810L346 810L346 765L584 765L584 720L389 720L389 675L663 675L663 630L522 630L522 585L624 585L624 540L167 540L167 495L275 495L275 450L109 450L109 405L504 405L504 360L95 360L95 315L617 315L617 270L118 270L118 225L700 225L700 180L548 180L548 135L286 135L286 90L348 90L348 45L615 45L615 0L900 0L900 45L900 45L900 90L900 90L900 135L900 135L900 180L900 180L900 225L900 225L900 270L900 270L900 315L900 315L900 360L900 360L900 405L900 405L900 450L900 450L900 495L900 495L900 540L900 540L900 585L900 585L900 630L900 630L900 675L900 675L900 720L900 720L900 765L900 765L900 810L900 810L900 855L900 855L900 900L900 900Z" fill="#6600cc"></path><path d="M386 900L636 900L636 855L706 855L706 810L577 810L577 765L486 765L486 720L513 720L513 675L483 675L483 630L693 630L693 585L618 585L618 540L598 540L598 495L333 495L333 450L638 450L638 405L687 405L687 360L535 360L535 315L465 315L465 270L735 270L735 225L561 225L561 180L254 180L254 135L342 135L342 90L722 90L722 45L433 45L433 0L900 0L900 45L900 45L900 90L900 90L900 135L900 135L900 180L900 180L900 225L900 225L900 270L900 270L900 315L900 315L900 360L900 360L900 405L900 405L900 450L900 450L900 495L900 495L900 540L900 540L900 585L900 585L900 630L900 630L900 675L900 675L900 720L900 720L900 765L900 765L900 810L900 810L900 855L900 855L900 900L900 900Z" fill="#0088ff"></path><path d="M550 900L313 900L313 855L656 855L656 810L589 810L589 765L491 765L491 720L474 720L474 675L326 675L326 630L517 630L517 585L582 585L582 540L402 540L402 495L637 495L637 450L465 450L465 405L565 405L565 360L232 360L232 315L702 315L702 270L320 270L320 225L489 225L489 180L753 180L753 135L348 135L348 90L413 90L413 45L517 45L517 0L900 0L900 45L900 45L900 90L900 90L900 135L900 135L900 180L900 180L900 225L900 225L900 270L900 270L900 315L900 315L900 360L900 360L900 405L900 405L900 450L900 450L900 495L900 495L900 540L900 540L900 585L900 585L900 630L900 630L900 675L900 675L900 720L900 720L900 765L900 765L900 810L900 810L900 855L900 855L900 900L900 900Z" fill="#00ceff"></path><path d="M599 900L377 900L377 855L432 855L432 810L643 810L643 765L545 765L545 720L430 720L430 675L330 675L330 630L759 630L759 585L771 585L771 540L677 540L677 495L377 495L377 450L550 450L550 405L454 405L454 360L424 360L424 315L669 315L669 270L757 270L757 225L779 225L779 180L727 180L727 135L766 135L766 90L758 90L758 45L401 45L401 0L900 0L900 45L900 45L900 90L900 90L900 135L900 135L900 180L900 180L900 225L900 225L900 270L900 270L900 315L900 315L900 360L900 360L900 405L900 405L900 450L900 450L900 495L900 495L900 540L900 540L900 585L900 585L900 630L900 630L900 675L900 675L900 720L900 720L900 765L900 765L900 810L900 810L900 855L900 855L900 900L900 900Z" fill="#00fb87"></path><path d="M694 900L410 900L410 855L784 855L784 810L669 810L669 765L416 765L416 720L636 720L636 675L767 675L767 630L661 630L661 585L759 585L759 540L510 540L510 495L742 495L742 450L619 450L619 405L414 405L414 360L626 360L626 315L427 315L427 270L794 270L794 225L656 225L656 180L612 180L612 135L444 135L444 90L657 90L657 45L390 45L390 0L900 0L900 45L900 45L900 90L900 90L900 135L900 135L900 180L900 180L900 225L900 225L900 270L900 270L900 315L900 315L900 360L900 360L900 405L900 405L900 450L900 450L900 495L900 495L900 540L900 540L900 585L900 585L900 630L900 630L900 675L900 675L900 720L900 720L900 765L900 765L900 810L900 810L900 855L900 855L900 900L900 900Z" fill="#00ff55"></path><path d="M717 900L790 900L790 855L661 855L661 810L532 810L532 765L557 765L557 720L796 720L796 675L479 675L479 630L491 630L491 585L601 585L601 540L668 540L668 495L681 495L681 450L817 450L817 405L748 405L748 360L793 360L793 315L761 315L761 270L795 270L795 225L517 225L517 180L602 180L602 135L641 135L641 90L587 90L587 45L624 45L624 0L900 0L900 45L900 45L900 90L900 90L900 135L900 135L900 180L900 180L900 225L900 225L900 270L900 270L900 315L900 315L900 360L900 360L900 405L900 405L900 450L900 450L900 495L900 495L900 540L900 540L900 585L900 585L900 630L900 630L900 675L900 675L900 720L900 720L900 765L900 765L900 810L900 810L900 855L900 855L900 900L900 900Z" fill="#00fb87"></path><path d="M692 900L838 900L838 855L559 855L559 810L659 810L659 765L771 765L771 720L606 720L606 675L655 675L655 630L845 630L845 585L763 585L763 540L809 540L809 495L772 495L772 450L572 450L572 405L747 405L747 360L677 360L677 315L833 315L833 270L647 270L647 225L576 225L576 180L822 180L822 135L765 135L765 90L696 90L696 45L731 45L731 0L900 0L900 45L900 45L900 90L900 90L900 135L900 135L900 180L900 180L900 225L900 225L900 270L900 270L900 315L900 315L900 360L900 360L900 405L900 405L900 450L900 450L900 495L900 495L900 540L900 540L900 585L900 585L900 630L900 630L900 675L900 675L900 720L900 720L900 765L900 765L900 810L900 810L900 855L900 855L900 900L900 900Z" fill="#00ceff"></path><path d="M866 900L689 900L689 855L719 855L719 810L795 810L795 765L700 765L700 720L841 720L841 675L753 675L753 630L672 630L672 585L701 585L701 540L813 540L813 495L729 495L729 450L649 450L649 405L773 405L773 360L667 360L667 315L708 315L708 270L769 270L769 225L763 225L763 180L841 180L841 135L843 135L843 90L732 90L732 45L685 45L685 0L900 0L900 45L900 45L900 90L900 90L900 135L900 135L900 180L900 180L900 225L900 225L900 270L900 270L900 315L900 315L900 360L900 360L900 405L900 405L900 450L900 450L900 495L900 495L900 540L900 540L900 585L900 585L900 630L900 630L900 675L900 675L900 720L900 720L900 765L900 765L900 810L900 810L900 855L900 855L900 900L900 900Z" fill="#0088ff"></path><path d="M861 900L832 900L832 855L736 855L736 810L833 810L833 765L780 765L780 720L759 720L759 675L873 675L873 630L859 630L859 585L861 585L861 540L793 540L793 495L764 495L764 450L779 450L779 405L840 405L840 360L746 360L746 315L876 315L876 270L877 270L877 225L812 225L812 180L788 180L788 135L732 135L732 90L817 90L817 45L773 45L773 0L900 0L900 45L900 45L900 90L900 90L900 135L900 135L900 180L900 180L900 225L900 225L900 270L900 270L900 315L900 315L900 360L900 360L900 405L900 405L900 450L900 450L900 495L900 495L900 540L900 540L900 585L900 585L900 630L900 630L900 675L900 675L900 720L900 720L900 765L900 765L900 810L900 810L900 855L900 855L900 900L900 900Z" fill="#6600cc"></path></svg>