<svg id="visual" viewBox="0 0 1200 300" width="1200" height="300" xmlns="http://www.w3.org/2000/svg" xmlns:xlink="http://www.w3.org/1999/xlink" version="1.1"><path d="M0 125L9.2 128C18.3 131 36.7 137 54.8 145.3C73 153.7 91 164.3 109.2 167.8C127.3 171.3 145.7 167.7 163.8 167C182 166.3 200 168.7 218.2 170.3C236.3 172 254.7 173 272.8 168C291 163 309 152 327.2 146.5C345.3 141 363.7 141 381.8 144.5C400 148 418 155 436.2 154.2C454.3 153.3 472.7 144.7 490.8 141C509 137.3 527 138.7 545.2 144C563.3 149.3 581.7 158.7 600 160.2C618.3 161.7 636.7 155.3 654.8 150.3C673 145.3 691 141.7 709.2 140.5C727.3 139.3 745.7 140.7 763.8 143C782 145.3 800 148.7 818.2 145.8C836.3 143 854.7 134 872.8 137.3C891 140.7 909 156.3 927.2 160.2C945.3 164 963.7 156 981.8 147.2C1000 138.3 1018 128.7 1036.2 127.5C1054.3 126.3 1072.7 133.7 1090.8 135.3C1109 137 1127 133 1145.2 135.7C1163.3 138.3 1181.7 147.7 1190.8 152.3L1200 157L1200 301L1190.8 301C1181.7 301 1163.3 301 1145.2 301C1127 301 1109 301 1090.8 301C1072.7 301 1054.3 301 1036.2 301C1018 301 1000 301 981.8 301C963.7 301 945.3 301 927.2 301C909 301 891 301 872.8 301C854.7 301 836.3 301 818.2 301C800 301 782 301 763.8 301C745.7 301 727.3 301 709.2 301C691 301 673 301 654.8 301C636.7 301 618.3 301 600 301C581.7 301 563.3 301 545.2 301C527 301 509 301 490.8 301C472.7 301 454.3 301 436.2 301C418 301 400 301 381.8 301C363.7 301 345.3 301 327.2 301C309 301 291 301 272.8 301C254.7 301 236.3 301 218.2 301C200 301 182 301 163.8 301C145.7 301 127.3 301 109.2 301C91 301 73 301 54.8 301C36.7 301 18.3 301 9.2 301L0 301Z" fill="#6600cc"></path><path d="M0 154L9.2 151.7C18.3 149.3 36.7 144.7 54.8 141.7C73 138.7 91 137.3 109.2 143C127.3 148.7 145.7 161.3 163.8 164.8C182 168.3 200 162.7 218.2 157C236.3 151.3 254.7 145.7 272.8 145.5C291 145.3 309 150.7 327.2 153.2C345.3 155.7 363.7 155.3 381.8 158.2C400 161 418 167 436.2 169.5C454.3 172 472.7 171 490.8 167.8C509 164.7 527 159.3 545.2 158.7C563.3 158 581.7 162 600 165.8C618.3 169.7 636.7 173.3 654.8 168.8C673 164.3 691 151.7 709.2 148.5C727.3 145.3 745.7 151.7 763.8 158.8C782 166 800 174 818.2 177.3C836.3 180.7 854.7 179.3 872.8 172.3C891 165.3 909 152.7 927.2 146.3C945.3 140 963.7 140 981.8 144.8C1000 149.7 1018 159.3 1036.2 160.7C1054.3 162 1072.7 155 1090.8 156.8C1109 158.7 1127 169.3 1145.2 172.5C1163.3 175.7 1181.7 171.3 1190.8 169.2L1200 167L1200 301L1190.8 301C1181.7 301 1163.3 301 1145.2 301C1127 301 1109 301 1090.8 301C1072.7 301 1054.3 301 1036.2 301C1018 301 1000 301 981.8 301C963.7 301 945.3 301 927.2 301C909 301 891 301 872.8 301C854.7 301 836.3 301 818.2 301C800 301 782 301 763.8 301C745.7 301 727.3 301 709.2 301C691 301 673 301 654.8 301C636.7 301 618.3 301 600 301C581.7 301 563.3 301 545.2 301C527 301 509 301 490.8 301C472.7 301 454.3 301 436.2 301C418 301 400 301 381.8 301C363.7 301 345.3 301 327.2 301C309 301 291 301 272.8 301C254.7 301 236.3 301 218.2 301C200 301 182 301 163.8 301C145.7 301 127.3 301 109.2 301C91 301 73 301 54.8 301C36.7 301 18.3 301 9.2 301L0 301Z" fill="#3f43e3"></path><path d="M0 186L9.2 187.2C18.3 188.3 36.7 190.7 54.8 187.3C73 184 91 175 109.2 173.7C127.3 172.3 145.7 178.7 163.8 182.3C182 186 200 187 218.2 180.8C236.3 174.7 254.7 161.3 272.8 157.5C291 153.7 309 159.3 327.2 161.8C345.3 164.3 363.7 163.7 381.8 168.2C400 172.7 418 182.3 436.2 186C454.3 189.7 472.7 187.3 490.8 186.2C509 185 527 185 545.2 182C563.3 179 581.7 173 600 175C618.3 177 636.7 187 654.8 190.3C673 193.7 691 190.3 709.2 187.5C727.3 184.7 745.7 182.3 763.8 175.8C782 169.3 800 158.7 818.2 160.5C836.3 162.3 854.7 176.7 872.8 179.7C891 182.7 909 174.3 927.2 167C945.3 159.7 963.7 153.3 981.8 152.2C1000 151 1018 155 1036.2 156.2C1054.3 157.3 1072.7 155.7 1090.8 157.2C1109 158.7 1127 163.3 1145.2 162.7C1163.3 162 1181.7 156 1190.8 153L1200 150L1200 301L1190.8 301C1181.7 301 1163.3 301 1145.2 301C1127 301 1109 301 1090.8 301C1072.7 301 1054.3 301 1036.2 301C1018 301 1000 301 981.8 301C963.7 301 945.3 301 927.2 301C909 301 891 301 872.8 301C854.7 301 836.3 301 818.2 301C800 301 782 301 763.8 301C745.7 301 727.3 301 709.2 301C691 301 673 301 654.8 301C636.7 301 618.3 301 600 301C581.7 301 563.3 301 545.2 301C527 301 509 301 490.8 301C472.7 301 454.3 301 436.2 301C418 301 400 301 381.8 301C363.7 301 345.3 301 327.2 301C309 301 291 301 272.8 301C254.7 301 236.3 301 218.2 301C200 301 182 301 163.8 301C145.7 301 127.3 301 109.2 301C91 301 73 301 54.8 301C36.7 301 18.3 301 9.2 301L0 301Z" fill="#0063f3"></path><path d="M0 163L9.2 168.7C18.3 174.3 36.7 185.7 54.8 187.7C73 189.7 91 182.3 109.2 177.3C127.3 172.3 145.7 169.7 163.8 167.7C182 165.7 200 164.3 218.2 167.2C236.3 170 254.7 177 272.8 182C291 187 309 190 327.2 187.5C345.3 185 363.7 177 381.8 175.7C400 174.3 418 179.7 436.2 180.5C454.3 181.3 472.7 177.7 490.8 180.5C509 183.3 527 192.7 545.2 191C563.3 189.3 581.7 176.7 600 177C618.3 177.3 636.7 190.7 654.8 193.7C673 196.7 691 189.3 709.2 182.3C727.3 175.3 745.7 168.7 763.8 169.8C782 171 800 180 818.2 181C836.3 182 854.7 175 872.8 175.2C891 175.3 909 182.7 927.2 185.8C945.3 189 963.7 188 981.8 183.7C1000 179.3 1018 171.7 1036.2 171.3C1054.3 171 1072.7 178 1090.8 178C1109 178 1127 171 1145.2 170.5C1163.3 170 1181.7 176 1190.8 179L1200 182L1200 301L1190.8 301C1181.7 301 1163.3 301 1145.2 301C1127 301 1109 301 1090.8 301C1072.7 301 1054.3 301 1036.2 301C1018 301 1000 301 981.8 301C963.7 301 945.3 301 927.2 301C909 301 891 301 872.8 301C854.7 301 836.3 301 818.2 301C800 301 782 301 763.8 301C745.7 301 727.3 301 709.2 301C691 301 673 301 654.8 301C636.7 301 618.3 301 600 301C581.7 301 563.3 301 545.2 301C527 301 509 301 490.8 301C472.7 301 454.3 301 436.2 301C418 301 400 301 381.8 301C363.7 301 345.3 301 327.2 301C309 301 291 301 272.8 301C254.7 301 236.3 301 218.2 301C200 301 182 301 163.8 301C145.7 301 127.3 301 109.2 301C91 301 73 301 54.8 301C36.7 301 18.3 301 9.2 301L0 301Z" fill="#007dfc"></path><path d="M0 205L9.2 202.7C18.3 200.3 36.7 195.7 54.8 197.2C73 198.7 91 206.3 109.2 204.5C127.3 202.7 145.7 191.3 163.8 185.3C182 179.3 200 178.7 218.2 180.7C236.3 182.7 254.7 187.3 272.8 187.5C291 187.7 309 183.3 327.2 186.7C345.3 190 363.7 201 381.8 206.8C400 212.7 418 213.3 436.2 207.8C454.3 202.3 472.7 190.7 490.8 184.3C509 178 527 177 545.2 182.3C563.3 187.7 581.7 199.3 600 204.3C618.3 209.3 636.7 207.7 654.8 206.5C673 205.3 691 204.7 709.2 202.8C727.3 201 745.7 198 763.8 195.2C782 192.3 800 189.7 818.2 186.8C836.3 184 854.7 181 872.8 179.3C891 177.7 909 177.3 927.2 177C945.3 176.7 963.7 176.3 981.8 182C1000 187.7 1018 199.3 1036.2 205.5C1054.3 211.7 1072.7 212.3 1090.8 211.7C1109 211 1127 209 1145.2 204.3C1163.3 199.7 1181.7 192.3 1190.8 188.7L1200 185L1200 301L1190.8 301C1181.7 301 1163.3 301 1145.2 301C1127 301 1109 301 1090.8 301C1072.7 301 1054.3 301 1036.2 301C1018 301 1000 301 981.8 301C963.7 301 945.3 301 927.2 301C909 301 891 301 872.8 301C854.7 301 836.3 301 818.2 301C800 301 782 301 763.8 301C745.7 301 727.3 301 709.2 301C691 301 673 301 654.8 301C636.7 301 618.3 301 600 301C581.7 301 563.3 301 545.2 301C527 301 509 301 490.8 301C472.7 301 454.3 301 436.2 301C418 301 400 301 381.8 301C363.7 301 345.3 301 327.2 301C309 301 291 301 272.8 301C254.7 301 236.3 301 218.2 301C200 301 182 301 163.8 301C145.7 301 127.3 301 109.2 301C91 301 73 301 54.8 301C36.7 301 18.3 301 9.2 301L0 301Z" fill="#0095ff"></path><path d="M0 203L9.2 203.7C18.3 204.3 36.7 205.7 54.8 204C73 202.3 91 197.7 109.2 198.8C127.3 200 145.7 207 163.8 211C182 215 200 216 218.2 212C236.3 208 254.7 199 272.8 200C291 201 309 212 327.2 215.3C345.3 218.7 363.7 214.3 381.8 212C400 209.7 418 209.3 436.2 206.8C454.3 204.3 472.7 199.7 490.8 201C509 202.3 527 209.7 545.2 214.2C563.3 218.7 581.7 220.3 600 216.2C618.3 212 636.7 202 654.8 199.7C673 197.3 691 202.7 709.2 204.7C727.3 206.7 745.7 205.3 763.8 203.3C782 201.3 800 198.7 818.2 198.7C836.3 198.7 854.7 201.3 872.8 205.2C891 209 909 214 927.2 216.3C945.3 218.7 963.7 218.3 981.8 217.7C1000 217 1018 216 1036.2 216.8C1054.3 217.7 1072.7 220.3 1090.8 218.2C1109 216 1127 209 1145.2 203.8C1163.3 198.7 1181.7 195.3 1190.8 193.7L1200 192L1200 301L1190.8 301C1181.7 301 1163.3 301 1145.2 301C1127 301 1109 301 1090.8 301C1072.7 301 1054.3 301 1036.2 301C1018 301 1000 301 981.8 301C963.7 301 945.3 301 927.2 301C909 301 891 301 872.8 301C854.7 301 836.3 301 818.2 301C800 301 782 301 763.8 301C745.7 301 727.3 301 709.2 301C691 301 673 301 654.8 301C636.7 301 618.3 301 600 301C581.7 301 563.3 301 545.2 301C527 301 509 301 490.8 301C472.7 301 454.3 301 436.2 301C418 301 400 301 381.8 301C363.7 301 345.3 301 327.2 301C309 301 291 301 272.8 301C254.7 301 236.3 301 218.2 301C200 301 182 301 163.8 301C145.7 301 127.3 301 109.2 301C91 301 73 301 54.8 301C36.7 301 18.3 301 9.2 301L0 301Z" fill="#00aaff"></path><path d="M0 233L9.2 229.7C18.3 226.3 36.7 219.7 54.8 217.8C73 216 91 219 109.2 218.3C127.3 217.7 145.7 213.3 163.8 211.2C182 209 200 209 218.2 209.7C236.3 210.3 254.7 211.7 272.8 215.5C291 219.3 309 225.7 327.2 226.8C345.3 228 363.7 224 381.8 223.7C400 223.3 418 226.7 436.2 228.2C454.3 229.7 472.7 229.3 490.8 229C509 228.7 527 228.3 545.2 229.2C563.3 230 581.7 232 600 231.3C618.3 230.7 636.7 227.3 654.8 223.5C673 219.7 691 215.3 709.2 216.5C727.3 217.7 745.7 224.3 763.8 223.3C782 222.3 800 213.7 818.2 209.7C836.3 205.7 854.7 206.3 872.8 207.8C891 209.3 909 211.7 927.2 211.7C945.3 211.7 963.7 209.3 981.8 209.7C1000 210 1018 213 1036.2 212.7C1054.3 212.3 1072.7 208.7 1090.8 211.2C1109 213.7 1127 222.3 1145.2 224.2C1163.3 226 1181.7 221 1190.8 218.5L1200 216L1200 301L1190.8 301C1181.7 301 1163.3 301 1145.2 301C1127 301 1109 301 1090.8 301C1072.7 301 1054.3 301 1036.2 301C1018 301 1000 301 981.8 301C963.7 301 945.3 301 927.2 301C909 301 891 301 872.8 301C854.7 301 836.3 301 818.2 301C800 301 782 301 763.8 301C745.7 301 727.3 301 709.2 301C691 301 673 301 654.8 301C636.7 301 618.3 301 600 301C581.7 301 563.3 301 545.2 301C527 301 509 301 490.8 301C472.7 301 454.3 301 436.2 301C418 301 400 301 381.8 301C363.7 301 345.3 301 327.2 301C309 301 291 301 272.8 301C254.7 301 236.3 301 218.2 301C200 301 182 301 163.8 301C145.7 301 127.3 301 109.2 301C91 301 73 301 54.8 301C36.7 301 18.3 301 9.2 301L0 301Z" fill="#00beff"></path><path d="M0 234L9.2 232.5C18.3 231 36.7 228 54.8 227.8C73 227.7 91 230.3 109.2 231.5C127.3 232.7 145.7 232.3 163.8 229.5C182 226.7 200 221.3 218.2 220.7C236.3 220 254.7 224 272.8 226C291 228 309 228 327.2 226.3C345.3 224.7 363.7 221.3 381.8 222.8C400 224.3 418 230.7 436.2 231.5C454.3 232.3 472.7 227.7 490.8 228.2C509 228.7 527 234.3 545.2 236.5C563.3 238.7 581.7 237.3 600 234.7C618.3 232 636.7 228 654.8 226C673 224 691 224 709.2 227.2C727.3 230.3 745.7 236.7 763.8 239.3C782 242 800 241 818.2 239.8C836.3 238.7 854.7 237.3 872.8 234.3C891 231.3 909 226.7 927.2 225.3C945.3 224 963.7 226 981.8 228.8C1000 231.7 1018 235.3 1036.2 236.7C1054.3 238 1072.7 237 1090.8 233.7C1109 230.3 1127 224.7 1145.2 221.8C1163.3 219 1181.7 219 1190.8 219L1200 219L1200 301L1190.8 301C1181.7 301 1163.3 301 1145.2 301C1127 301 1109 301 1090.8 301C1072.7 301 1054.3 301 1036.2 301C1018 301 1000 301 981.8 301C963.7 301 945.3 301 927.2 301C909 301 891 301 872.8 301C854.7 301 836.3 301 818.2 301C800 301 782 301 763.8 301C745.7 301 727.3 301 709.2 301C691 301 673 301 654.8 301C636.7 301 618.3 301 600 301C581.7 301 563.3 301 545.2 301C527 301 509 301 490.8 301C472.7 301 454.3 301 436.2 301C418 301 400 301 381.8 301C363.7 301 345.3 301 327.2 301C309 301 291 301 272.8 301C254.7 301 236.3 301 218.2 301C200 301 182 301 163.8 301C145.7 301 127.3 301 109.2 301C91 301 73 301 54.8 301C36.7 301 18.3 301 9.2 301L0 301Z" fill="#00d1ff"></path><path d="M0 238L9.2 240C18.3 242 36.7 246 54.8 247.8C73 249.7 91 249.3 109.2 246.7C127.3 244 145.7 239 163.8 236.3C182 233.7 200 233.3 218.2 235C236.3 236.7 254.7 240.3 272.8 243.3C291 246.3 309 248.7 327.2 248.2C345.3 247.7 363.7 244.3 381.8 241.7C400 239 418 237 436.2 237.8C454.3 238.7 472.7 242.3 490.8 243.2C509 244 527 242 545.2 241.2C563.3 240.3 581.7 240.7 600 240.8C618.3 241 636.7 241 654.8 239.3C673 237.7 691 234.3 709.2 234.5C727.3 234.7 745.7 238.3 763.8 238.2C782 238 800 234 818.2 234.3C836.3 234.7 854.7 239.3 872.8 242.2C891 245 909 246 927.2 246.5C945.3 247 963.7 247 981.8 245C1000 243 1018 239 1036.2 237.5C1054.3 236 1072.7 237 1090.8 239C1109 241 1127 244 1145.2 245.7C1163.3 247.3 1181.7 247.7 1190.8 247.8L1200 248L1200 301L1190.8 301C1181.7 301 1163.3 301 1145.2 301C1127 301 1109 301 1090.8 301C1072.7 301 1054.3 301 1036.2 301C1018 301 1000 301 981.8 301C963.7 301 945.3 301 927.2 301C909 301 891 301 872.8 301C854.7 301 836.3 301 818.2 301C800 301 782 301 763.8 301C745.7 301 727.3 301 709.2 301C691 301 673 301 654.8 301C636.7 301 618.3 301 600 301C581.7 301 563.3 301 545.2 301C527 301 509 301 490.8 301C472.7 301 454.3 301 436.2 301C418 301 400 301 381.8 301C363.7 301 345.3 301 327.2 301C309 301 291 301 272.8 301C254.7 301 236.3 301 218.2 301C200 301 182 301 163.8 301C145.7 301 127.3 301 109.2 301C91 301 73 301 54.8 301C36.7 301 18.3 301 9.2 301L0 301Z" fill="#00e1f7"></path><path d="M0 249L9.2 249.7C18.3 250.3 36.7 251.7 54.8 252.5C73 253.3 91 253.7 109.2 252.2C127.3 250.7 145.7 247.3 163.8 247.5C182 247.7 200 251.3 218.2 252.3C236.3 253.3 254.7 251.7 272.8 250.7C291 249.7 309 249.3 327.2 249C345.3 248.7 363.7 248.3 381.8 248.3C400 248.3 418 248.7 436.2 250.7C454.3 252.7 472.7 256.3 490.8 256.7C509 257 527 254 545.2 251.3C563.3 248.7 581.7 246.3 600 246.8C618.3 247.3 636.7 250.7 654.8 252C673 253.3 691 252.7 709.2 253.7C727.3 254.7 745.7 257.3 763.8 257.5C782 257.7 800 255.3 818.2 254.2C836.3 253 854.7 253 872.8 251.7C891 250.3 909 247.7 927.2 248.5C945.3 249.3 963.7 253.7 981.8 254.7C1000 255.7 1018 253.3 1036.2 253.8C1054.3 254.3 1072.7 257.7 1090.8 256.7C1109 255.7 1127 250.3 1145.2 250C1163.3 249.7 1181.7 254.3 1190.8 256.7L1200 259L1200 301L1190.8 301C1181.7 301 1163.3 301 1145.2 301C1127 301 1109 301 1090.8 301C1072.7 301 1054.3 301 1036.2 301C1018 301 1000 301 981.8 301C963.7 301 945.3 301 927.2 301C909 301 891 301 872.8 301C854.7 301 836.3 301 818.2 301C800 301 782 301 763.8 301C745.7 301 727.3 301 709.2 301C691 301 673 301 654.8 301C636.7 301 618.3 301 600 301C581.7 301 563.3 301 545.2 301C527 301 509 301 490.8 301C472.7 301 454.3 301 436.2 301C418 301 400 301 381.8 301C363.7 301 345.3 301 327.2 301C309 301 291 301 272.8 301C254.7 301 236.3 301 218.2 301C200 301 182 301 163.8 301C145.7 301 127.3 301 109.2 301C91 301 73 301 54.8 301C36.7 301 18.3 301 9.2 301L0 301Z" fill="#00eed1"></path><path d="M0 259L9.2 260.2C18.3 261.3 36.7 263.7 54.8 265.3C73 267 91 268 109.2 268.5C127.3 269 145.7 269 163.8 268.7C182 268.3 200 267.7 218.2 266.7C236.3 265.7 254.7 264.3 272.8 263.8C291 263.3 309 263.7 327.2 264.3C345.3 265 363.7 266 381.8 265.5C400 265 418 263 436.2 262C454.3 261 472.7 261 490.8 261.2C509 261.3 527 261.7 545.2 262.7C563.3 263.7 581.7 265.3 600 264.8C618.3 264.3 636.7 261.7 654.8 261.5C673 261.3 691 263.7 709.2 265.3C727.3 267 745.7 268 763.8 267.8C782 267.7 800 266.3 818.2 264.7C836.3 263 854.7 261 872.8 260.8C891 260.7 909 262.3 927.2 263.2C945.3 264 963.7 264 981.8 263.2C1000 262.3 1018 260.7 1036.2 261C1054.3 261.3 1072.7 263.7 1090.8 264C1109 264.3 1127 262.7 1145.2 262.2C1163.3 261.7 1181.7 262.3 1190.8 262.7L1200 263L1200 301L1190.8 301C1181.7 301 1163.3 301 1145.2 301C1127 301 1109 301 1090.8 301C1072.7 301 1054.3 301 1036.2 301C1018 301 1000 301 981.8 301C963.7 301 945.3 301 927.2 301C909 301 891 301 872.8 301C854.7 301 836.3 301 818.2 301C800 301 782 301 763.8 301C745.7 301 727.3 301 709.2 301C691 301 673 301 654.8 301C636.7 301 618.3 301 600 301C581.7 301 563.3 301 545.2 301C527 301 509 301 490.8 301C472.7 301 454.3 301 436.2 301C418 301 400 301 381.8 301C363.7 301 345.3 301 327.2 301C309 301 291 301 272.8 301C254.7 301 236.3 301 218.2 301C200 301 182 301 163.8 301C145.7 301 127.3 301 109.2 301C91 301 73 301 54.8 301C36.7 301 18.3 301 9.2 301L0 301Z" fill="#00f99a"></path><path d="M0 279L9.2 278C18.3 277 36.7 275 54.8 274.2C73 273.3 91 273.7 109.2 273.5C127.3 273.3 145.7 272.7 163.8 272.7C182 272.7 200 273.3 218.2 273.7C236.3 274 254.7 274 272.8 274.7C291 275.3 309 276.7 327.2 277.7C345.3 278.7 363.7 279.3 381.8 279.5C400 279.7 418 279.3 436.2 278.2C454.3 277 472.7 275 490.8 274.7C509 274.3 527 275.7 545.2 276.8C563.3 278 581.7 279 600 278.5C618.3 278 636.7 276 654.8 275.8C673 275.7 691 277.3 709.2 277.3C727.3 277.3 745.7 275.7 763.8 274.7C782 273.7 800 273.3 818.2 274.2C836.3 275 854.7 277 872.8 278C891 279 909 279 927.2 278.2C945.3 277.3 963.7 275.7 981.8 274.8C1000 274 1018 274 1036.2 274.7C1054.3 275.3 1072.7 276.7 1090.8 276.5C1109 276.3 1127 274.7 1145.2 274C1163.3 273.3 1181.7 273.7 1190.8 273.8L1200 274L1200 301L1190.8 301C1181.7 301 1163.3 301 1145.2 301C1127 301 1109 301 1090.8 301C1072.7 301 1054.3 301 1036.2 301C1018 301 1000 301 981.8 301C963.7 301 945.3 301 927.2 301C909 301 891 301 872.8 301C854.7 301 836.3 301 818.2 301C800 301 782 301 763.8 301C745.7 301 727.3 301 709.2 301C691 301 673 301 654.8 301C636.7 301 618.3 301 600 301C581.7 301 563.3 301 545.2 301C527 301 509 301 490.8 301C472.7 301 454.3 301 436.2 301C418 301 400 301 381.8 301C363.7 301 345.3 301 327.2 301C309 301 291 301 272.8 301C254.7 301 236.3 301 218.2 301C200 301 182 301 163.8 301C145.7 301 127.3 301 109.2 301C91 301 73 301 54.8 301C36.7 301 18.3 301 9.2 301L0 301Z" fill="#00ff55"></path></svg>