<svg id="visual" viewBox="0 0 1000 300" width="1000" height="300" xmlns="http://www.w3.org/2000/svg" xmlns:xlink="http://www.w3.org/1999/xlink" version="1.1"><path d="M0 239L41.7 249.2C83.3 259.3 166.7 279.7 250 263C333.3 246.3 416.7 192.7 500 188.8C583.3 185 666.7 231 750 232.2C833.3 233.3 916.7 189.7 958.3 167.8L1000 146L1000 401L958.3 401C916.7 401 833.3 401 750 401C666.7 401 583.3 401 500 401C416.7 401 333.3 401 250 401C166.7 401 83.3 401 41.7 401L0 401Z" fill="#fff" stroke-linecap="round" stroke-linejoin="miter"></path></svg>