<svg id="visual" viewBox="0 0 900 900" width="900" height="900" xmlns="http://www.w3.org/2000/svg" xmlns:xlink="http://www.w3.org/1999/xlink" version="1.1"><rect x="0" y="0" width="900" height="900" fill="#000"></rect><path d="M76 900L674 900L674 850L427 850L427 800L682 800L682 750L289 750L289 700L118 700L118 650L219 650L219 600L285 600L285 550L233 550L233 500L172 500L172 450L120 450L120 400L393 400L393 350L171 350L171 300L335 300L335 250L355 250L355 200L678 200L678 150L548 150L548 100L299 100L299 50L274 50L274 0L900 0L900 50L900 50L900 100L900 100L900 150L900 150L900 200L900 200L900 250L900 250L900 300L900 300L900 350L900 350L900 400L900 400L900 450L900 450L900 500L900 500L900 550L900 550L900 600L900 600L900 650L900 650L900 700L900 700L900 750L900 750L900 800L900 800L900 850L900 850L900 900L900 900Z" fill="#6600cc"></path><path d="M687 900L611 900L611 850L667 850L667 800L740 800L740 750L558 750L558 700L273 700L273 650L695 650L695 600L332 600L332 550L571 550L571 500L687 500L687 450L319 450L319 400L701 400L701 350L299 350L299 300L131 300L131 250L550 250L550 200L253 200L253 150L610 150L610 100L181 100L181 50L363 50L363 0L900 0L900 50L900 50L900 100L900 100L900 150L900 150L900 200L900 200L900 250L900 250L900 300L900 300L900 350L900 350L900 400L900 400L900 450L900 450L900 500L900 500L900 550L900 550L900 600L900 600L900 650L900 650L900 700L900 700L900 750L900 750L900 800L900 800L900 850L900 850L900 900L900 900Z" fill="#0088ff"></path><path d="M336 900L566 900L566 850L409 850L409 800L724 800L724 750L380 750L380 700L246 700L246 650L558 650L558 600L300 600L300 550L609 550L609 500L575 500L575 450L395 450L395 400L738 400L738 350L377 350L377 300L418 300L418 250L373 250L373 200L321 200L321 150L713 150L713 100L456 100L456 50L389 50L389 0L900 0L900 50L900 50L900 100L900 100L900 150L900 150L900 200L900 200L900 250L900 250L900 300L900 300L900 350L900 350L900 400L900 400L900 450L900 450L900 500L900 500L900 550L900 550L900 600L900 600L900 650L900 650L900 700L900 700L900 750L900 750L900 800L900 800L900 850L900 850L900 900L900 900Z" fill="#00ceff"></path><path d="M761 900L348 900L348 850L341 850L341 800L421 800L421 750L710 750L710 700L549 700L549 650L578 650L578 600L393 600L393 550L443 550L443 500L445 500L445 450L766 450L766 400L743 400L743 350L365 350L365 300L522 300L522 250L761 250L761 200L356 200L356 150L719 150L719 100L639 100L639 50L532 50L532 0L900 0L900 50L900 50L900 100L900 100L900 150L900 150L900 200L900 200L900 250L900 250L900 300L900 300L900 350L900 350L900 400L900 400L900 450L900 450L900 500L900 500L900 550L900 550L900 600L900 600L900 650L900 650L900 700L900 700L900 750L900 750L900 800L900 800L900 850L900 850L900 900L900 900Z" fill="#00fb87"></path><path d="M664 900L764 900L764 850L753 850L753 800L689 800L689 750L508 750L508 700L797 700L797 650L712 650L712 600L699 600L699 550L790 550L790 500L491 500L491 450L732 450L732 400L587 400L587 350L726 350L726 300L517 300L517 250L785 250L785 200L432 200L432 150L622 150L622 100L787 100L787 50L689 50L689 0L900 0L900 50L900 50L900 100L900 100L900 150L900 150L900 200L900 200L900 250L900 250L900 300L900 300L900 350L900 350L900 400L900 400L900 450L900 450L900 500L900 500L900 550L900 550L900 600L900 600L900 650L900 650L900 700L900 700L900 750L900 750L900 800L900 800L900 850L900 850L900 900L900 900Z" fill="#00ff55"></path><path d="M625 900L626 900L626 850L473 850L473 800L685 800L685 750L712 750L712 700L502 700L502 650L596 650L596 600L772 600L772 550L747 550L747 500L550 500L550 450L552 450L552 400L634 400L634 350L714 350L714 300L551 300L551 250L777 250L777 200L770 200L770 150L479 150L479 100L780 100L780 50L548 50L548 0L900 0L900 50L900 50L900 100L900 100L900 150L900 150L900 200L900 200L900 250L900 250L900 300L900 300L900 350L900 350L900 400L900 400L900 450L900 450L900 500L900 500L900 550L900 550L900 600L900 600L900 650L900 650L900 700L900 700L900 750L900 750L900 800L900 800L900 850L900 850L900 900L900 900Z" fill="#00fb87"></path><path d="M744 900L585 900L585 850L635 850L635 800L580 800L580 750L631 750L631 700L830 700L830 650L641 650L641 600L580 600L580 550L800 550L800 500L661 500L661 450L802 450L802 400L828 400L828 350L719 350L719 300L823 300L823 250L710 250L710 200L794 200L794 150L595 150L595 100L799 100L799 50L601 50L601 0L900 0L900 50L900 50L900 100L900 100L900 150L900 150L900 200L900 200L900 250L900 250L900 300L900 300L900 350L900 350L900 400L900 400L900 450L900 450L900 500L900 500L900 550L900 550L900 600L900 600L900 650L900 650L900 700L900 700L900 750L900 750L900 800L900 800L900 850L900 850L900 900L900 900Z" fill="#00ceff"></path><path d="M857 900L682 900L682 850L702 850L702 800L819 800L819 750L660 750L660 700L833 700L833 650L755 650L755 600L789 600L789 550L837 550L837 500L754 500L754 450L713 450L713 400L820 400L820 350L690 350L690 300L800 300L800 250L659 250L659 200L689 200L689 150L838 150L838 100L734 100L734 50L718 50L718 0L900 0L900 50L900 50L900 100L900 100L900 150L900 150L900 200L900 200L900 250L900 250L900 300L900 300L900 350L900 350L900 400L900 400L900 450L900 450L900 500L900 500L900 550L900 550L900 600L900 600L900 650L900 650L900 700L900 700L900 750L900 750L900 800L900 800L900 850L900 850L900 900L900 900Z" fill="#0088ff"></path><path d="M889 900L822 900L822 850L850 850L850 800L829 800L829 750L845 750L845 700L874 700L874 650L806 650L806 600L730 600L730 550L797 550L797 500L775 500L775 450L747 450L747 400L831 400L831 350L818 350L818 300L752 300L752 250L799 250L799 200L880 200L880 150L764 150L764 100L770 100L770 50L764 50L764 0L900 0L900 50L900 50L900 100L900 100L900 150L900 150L900 200L900 200L900 250L900 250L900 300L900 300L900 350L900 350L900 400L900 400L900 450L900 450L900 500L900 500L900 550L900 550L900 600L900 600L900 650L900 650L900 700L900 700L900 750L900 750L900 800L900 800L900 850L900 850L900 900L900 900Z" fill="#6600cc"></path></svg>