<svg id="visual" viewBox="0 0 900 900" width="900" height="900" xmlns="http://www.w3.org/2000/svg" xmlns:xlink="http://www.w3.org/1999/xlink" version="1.1"><rect x="0" y="0" width="900" height="900" fill="#000"></rect><path d="M55 900L267 900L267 850L384 850L384 800L381 800L381 750L558 750L558 700L616 700L616 650L559 650L559 600L696 600L696 550L467 550L467 500L533 500L533 450L641 450L641 400L426 400L426 350L459 350L459 300L210 300L210 250L647 250L647 200L258 200L258 150L684 150L684 100L288 100L288 50L134 50L134 0L900 0L900 50L900 50L900 100L900 100L900 150L900 150L900 200L900 200L900 250L900 250L900 300L900 300L900 350L900 350L900 400L900 400L900 450L900 450L900 500L900 500L900 550L900 550L900 600L900 600L900 650L900 650L900 700L900 700L900 750L900 750L900 800L900 800L900 850L900 850L900 900L900 900Z" fill="#00ff55"></path><path d="M395 900L667 900L667 850L521 850L521 800L273 800L273 750L201 750L201 700L232 700L232 650L266 650L266 600L367 600L367 550L243 550L243 500L419 500L419 450L356 450L356 400L455 400L455 350L279 350L279 300L278 300L278 250L183 250L183 200L450 200L450 150L151 150L151 100L200 100L200 50L292 50L292 0L900 0L900 50L900 50L900 100L900 100L900 150L900 150L900 200L900 200L900 250L900 250L900 300L900 300L900 350L900 350L900 400L900 400L900 450L900 450L900 500L900 500L900 550L900 550L900 600L900 600L900 650L900 650L900 700L900 700L900 750L900 750L900 800L900 800L900 850L900 850L900 900L900 900Z" fill="#00f5b0"></path><path d="M560 900L718 900L718 850L417 850L417 800L504 800L504 750L217 750L217 700L697 700L697 650L438 650L438 600L363 600L363 550L674 550L674 500L442 500L442 450L534 450L534 400L404 400L404 350L276 350L276 300L308 300L308 250L244 250L244 200L270 200L270 150L512 150L512 100L407 100L407 50L560 50L560 0L900 0L900 50L900 50L900 100L900 100L900 150L900 150L900 200L900 200L900 250L900 250L900 300L900 300L900 350L900 350L900 400L900 400L900 450L900 450L900 500L900 500L900 550L900 550L900 600L900 600L900 650L900 650L900 700L900 700L900 750L900 750L900 800L900 800L900 850L900 850L900 900L900 900Z" fill="#00e5ef"></path><path d="M669 900L548 900L548 850L768 850L768 800L479 800L479 750L434 750L434 700L455 700L455 650L359 650L359 600L695 600L695 550L627 550L627 500L366 500L366 450L434 450L434 400L314 400L314 350L492 350L492 300L719 300L719 250L737 250L737 200L316 200L316 150L519 150L519 100L605 100L605 50L574 50L574 0L900 0L900 50L900 50L900 100L900 100L900 150L900 150L900 200L900 200L900 250L900 250L900 300L900 300L900 350L900 350L900 400L900 400L900 450L900 450L900 500L900 500L900 550L900 550L900 600L900 600L900 650L900 650L900 700L900 700L900 750L900 750L900 800L900 800L900 850L900 850L900 900L900 900Z" fill="#00ceff"></path><path d="M424 900L419 900L419 850L804 850L804 800L660 800L660 750L635 750L635 700L720 700L720 650L630 650L630 600L705 600L705 550L514 550L514 500L481 500L481 450L614 450L614 400L691 400L691 350L477 350L477 300L683 300L683 250L461 250L461 200L687 200L687 150L738 150L738 100L594 100L594 50L443 50L443 0L900 0L900 50L900 50L900 100L900 100L900 150L900 150L900 200L900 200L900 250L900 250L900 300L900 300L900 350L900 350L900 400L900 400L900 450L900 450L900 500L900 500L900 550L900 550L900 600L900 600L900 650L900 650L900 700L900 700L900 750L900 750L900 800L900 800L900 850L900 850L900 900L900 900Z" fill="#00b4ff"></path><path d="M538 900L663 900L663 850L589 850L589 800L583 800L583 750L632 750L632 700L634 700L634 650L657 650L657 600L625 600L625 550L660 550L660 500L680 500L680 450L648 450L648 400L563 400L563 350L587 350L587 300L746 300L746 250L798 250L798 200L564 200L564 150L745 150L745 100L557 100L557 50L680 50L680 0L900 0L900 50L900 50L900 100L900 100L900 150L900 150L900 200L900 200L900 250L900 250L900 300L900 300L900 350L900 350L900 400L900 400L900 450L900 450L900 500L900 500L900 550L900 550L900 600L900 600L900 650L900 650L900 700L900 700L900 750L900 750L900 800L900 800L900 850L900 850L900 900L900 900Z" fill="#0097ff"></path><path d="M689 900L840 900L840 850L798 850L798 800L679 800L679 750L654 750L654 700L743 700L743 650L588 650L588 600L829 600L829 550L758 550L758 500L603 500L603 450L591 450L591 400L567 400L567 350L737 350L737 300L575 300L575 250L692 250L692 200L629 200L629 150L827 150L827 100L666 100L666 50L694 50L694 0L900 0L900 50L900 50L900 100L900 100L900 150L900 150L900 200L900 200L900 250L900 250L900 300L900 300L900 350L900 350L900 400L900 400L900 450L900 450L900 500L900 500L900 550L900 550L900 600L900 600L900 650L900 650L900 700L900 700L900 750L900 750L900 800L900 800L900 850L900 850L900 900L900 900Z" fill="#0077fb"></path><path d="M654 900L684 900L684 850L851 850L851 800L701 800L701 750L782 750L782 700L744 700L744 650L702 650L702 600L867 600L867 550L706 550L706 500L691 500L691 450L727 450L727 400L775 400L775 350L826 350L826 300L855 300L855 250L805 250L805 200L868 200L868 150L662 150L662 100L680 100L680 50L848 50L848 0L900 0L900 50L900 50L900 100L900 100L900 150L900 150L900 200L900 200L900 250L900 250L900 300L900 300L900 350L900 350L900 400L900 400L900 450L900 450L900 500L900 500L900 550L900 550L900 600L900 600L900 650L900 650L900 700L900 700L900 750L900 750L900 800L900 800L900 850L900 850L900 900L900 900Z" fill="#2950ea"></path><path d="M749 900L854 900L854 850L805 850L805 800L802 800L802 750L759 750L759 700L776 700L776 650L882 650L882 600L763 600L763 550L752 550L752 500L773 500L773 450L841 450L841 400L877 400L877 350L784 350L784 300L869 300L869 250L777 250L777 200L836 200L836 150L886 150L886 100L784 100L784 50L797 50L797 0L900 0L900 50L900 50L900 100L900 100L900 150L900 150L900 200L900 200L900 250L900 250L900 300L900 300L900 350L900 350L900 400L900 400L900 450L900 450L900 500L900 500L900 550L900 550L900 600L900 600L900 650L900 650L900 700L900 700L900 750L900 750L900 800L900 800L900 850L900 850L900 900L900 900Z" fill="#6600cc"></path></svg>